<svg id="Layer_1" data-name="Layer 1" xmlns="http://www.w3.org/2000/svg" viewBox="0 0 150 200"><defs><style>.cls-1{fill:#00cfff;}</style></defs><title>Deteto logo</title><path class="cls-1" d="M118.69,30.86a2.6,2.6,0,0,0-2.07-1H33.51a2.77,2.77,0,0,0-2.13,1,3.81,3.81,0,0,0-.91,2.62V65.22q0,11.58,6.28,18.52t19.8,6.95h37q13.4,0,19.68-6.95t6.28-18.52V33.48A4,4,0,0,0,118.69,30.86ZM107.36,65.22c0,4.64-1,8-3.13,10.36s-7,2.93-10.64,2.93h-37c-3.7,0-8.57-.51-10.76-2.93s-3.13-5.72-3.13-10.35V42h64.71V65.22Z"/><path class="cls-1" d="M118.25,104.64a4.31,4.31,0,0,0-3.69-1.77H35.44a4.23,4.23,0,0,0-3.69,1.86,7.21,7.21,0,0,0-1.3,4.22,6.63,6.63,0,0,0,1.16,4.32A4.55,4.55,0,0,0,35.31,115h33.6v74.53a4.23,4.23,0,0,0,1.86,3.69A7.2,7.2,0,0,0,75,194.55a6.63,6.63,0,0,0,4.32-1.16,4.55,4.55,0,0,0,1.76-3.69V115.06l33.72,0a3.84,3.84,0,0,0,3.45-1.86,7.54,7.54,0,0,0,1.3-4.42A6.78,6.78,0,0,0,118.25,104.64Z"/><path class="cls-1" d="M48.75,5.45a6.1,6.1,0,0,0-5.23,9.24c-0.67,1.68.25,3,2.26,3h5.94c2,0,2.94-1.3,2.26-3A6.1,6.1,0,0,0,48.75,5.45Z"/><path class="cls-1" d="M107.4,11.55a6.11,6.11,0,1,0-11.34,3.13c-0.67,1.68.25,3,2.27,3h5.94c2,0,2.94-1.3,2.26-3A6.07,6.07,0,0,0,107.4,11.55Z"/></svg>